<svg width="440" height="440" viewBox="0 0 440 440" fill="none" xmlns="http://www.w3.org/2000/svg">
<g clip-path="url(#clip0_4070_2941)">
<path d="M393.167 99.9065C390.249 95.2056 387.036 90.6939 383.548 86.3985C355.072 51.3833 317.839 36.5641 275.308 26.6377C231.379 16.3857 179.943 13.2001 137.764 31.6801C127.838 36.0801 118.404 41.8881 110.942 49.8081C82.7205 79.6489 73.0405 129.624 41.6157 169.127C10.1909 208.63 -5.13874 257.84 23.0741 304.55C35.0157 324.333 50.2397 340.63 68.2533 354.974C90.4293 372.574 109.56 396.387 135.195 410.159C162.132 424.626 198.009 429.669 227.824 423.042C261.836 415.483 281.785 385.422 307.745 364.962C328.214 348.806 352.704 338.228 372.76 321.561C403.489 296.041 426.792 254.98 422.92 214.298C419.118 174.803 414.225 133.76 393.167 99.9065Z" fill="#B83330"/>
<path opacity="0.7" d="M393.167 99.9065C390.249 95.2056 387.036 90.6939 383.548 86.3985C355.072 51.3833 317.839 36.5641 275.308 26.6377C231.379 16.3857 179.943 13.2001 137.764 31.6801C127.838 36.0801 118.404 41.8881 110.942 49.8081C82.7205 79.6489 73.0405 129.624 41.6157 169.127C10.1909 208.63 -5.13874 257.84 23.0741 304.55C35.0157 324.333 50.2397 340.63 68.2533 354.974C90.4293 372.574 109.56 396.387 135.195 410.159C162.132 424.626 198.009 429.669 227.824 423.042C261.836 415.483 281.785 385.422 307.745 364.962C328.214 348.806 352.704 338.228 372.76 321.561C403.489 296.041 426.792 254.98 422.92 214.298C419.118 174.803 414.225 133.76 393.167 99.9065Z" fill="white"/>
<path d="M32.3838 385.396H411.84" stroke="#263238" stroke-linecap="round" stroke-linejoin="round"/>
<path d="M12.1436 385.396H25.3436" stroke="#263238" stroke-linecap="round" stroke-linejoin="round"/>
<path opacity="0.2" d="M376.173 43.7359C375.331 43.7379 374.51 44.0038 373.827 44.4963C373.143 44.9888 372.631 45.683 372.363 46.4814H175.049C174.743 45.5743 174.124 44.8055 173.303 44.3125C172.482 43.8194 171.512 43.634 170.567 43.7894C169.622 43.9448 168.763 44.4309 168.144 45.1609C167.524 45.8909 167.184 46.8174 167.184 47.7751C167.184 48.7327 167.524 49.6592 168.144 50.3892C168.763 51.1192 169.622 51.6053 170.567 51.7607C171.512 51.9161 172.482 51.7307 173.303 51.2376C174.124 50.7446 174.743 49.9758 175.049 49.0686H372.363C372.602 49.7698 373.03 50.3914 373.6 50.8651C374.17 51.3389 374.859 51.6464 375.592 51.754C376.325 51.8615 377.074 51.7649 377.755 51.4748C378.437 51.1847 379.026 50.7122 379.456 50.1094C379.887 49.5065 380.143 48.7966 380.197 48.0577C380.25 47.3187 380.099 46.5793 379.76 45.9206C379.421 45.262 378.906 44.7096 378.274 44.3241C377.641 43.9387 376.914 43.7352 376.173 43.7359Z" fill="black"/>
<g opacity="0.2">
<path d="M221.76 49.7993C224.576 118.202 227.04 187.264 229.979 255.429L229.68 268.787C229.68 268.787 217.034 268.787 210.381 269.447C203.728 270.107 193.406 270.116 186.084 270.116C178.763 270.116 174.768 267.476 174.768 267.476L175.252 255.42C176.721 187.299 178.314 118.228 179.361 49.8169" stroke="black" stroke-linejoin="round"/>
<path d="M190.186 244.121L190.15 252.173" stroke="black" stroke-linejoin="round"/>
<path d="M190.872 87.1816L190.221 236.966" stroke="black" stroke-linejoin="round"/>
<path d="M191.048 48.2769L190.898 82.7113" stroke="black" stroke-linejoin="round"/>
<path d="M202.391 126.966L200.886 226.688" stroke="black" stroke-linejoin="round"/>
<path d="M203.57 49.1743L202.487 120.727" stroke="black" stroke-linejoin="round"/>
<path d="M212.986 154.695L213.4 247.254" stroke="black" stroke-linejoin="round"/>
<path d="M212.687 88.9683L212.951 147.101" stroke="black" stroke-linejoin="round"/>
<path d="M212.511 50.0723L212.652 81.8139" stroke="black" stroke-linejoin="round"/>
</g>
<g opacity="0.2">
<path d="M323.84 49.7993C321.094 122.223 317.68 195.36 315.04 267.432C319.73 268.142 324.458 268.577 329.199 268.735H357.465C361.856 268.639 366.232 268.189 370.55 267.388C369.274 195.387 368.421 122.188 366.15 49.7993" stroke="black" stroke-linejoin="round"/>
<path d="M355.326 244.121L355.361 252.173" stroke="black" stroke-linejoin="round"/>
<path d="M354.64 87.1816L355.3 236.966" stroke="black" stroke-linejoin="round"/>
<path d="M354.473 48.2769L354.622 82.7113" stroke="black" stroke-linejoin="round"/>
<path d="M343.121 126.966L344.635 226.688" stroke="black" stroke-linejoin="round"/>
<path d="M341.95 49.1743L343.033 120.727" stroke="black" stroke-linejoin="round"/>
<path d="M332.535 154.695L332.112 247.254" stroke="black" stroke-linejoin="round"/>
<path d="M332.833 88.9683L332.569 147.101" stroke="black" stroke-linejoin="round"/>
<path d="M333.01 50.0723L332.86 81.8139" stroke="black" stroke-linejoin="round"/>
</g>
<g opacity="0.2">
<path d="M222.974 69.2383H242.826V92.3999H224.294" stroke="black" stroke-linejoin="round"/>
<path d="M267.053 69.291H246.294V92.5318H267.053V69.291Z" stroke="black" stroke-linejoin="round"/>
</g>
<g opacity="0.2">
<path d="M322.81 69.2383H302.948V92.3999H321.49" stroke="black" stroke-linejoin="round"/>
<path d="M278.73 92.5317H299.489V69.2909H278.73V92.5317Z" stroke="black" stroke-linejoin="round"/>
</g>
<path opacity="0.2" d="M226.247 174.513H267.581V105.054H224.435" stroke="black" stroke-linejoin="round"/>
<path opacity="0.2" d="M320.716 104.465H278.476V174.513H317.539" stroke="black" stroke-linejoin="round"/>
<path opacity="0.2" d="M227.611 190.995H267.581V260.814H230.639" stroke="black" stroke-linejoin="round"/>
<path opacity="0.2" d="M317.996 190.405H278.476V261.465H314.503" stroke="black" stroke-linejoin="round"/>
<path opacity="0.2" d="M230.454 265.901H315.057" stroke="black" stroke-linejoin="round"/>
<path opacity="0.2" d="M222.807 61.1948H322.766" stroke="black" stroke-linejoin="round"/>
<path opacity="0.2" d="M273.02 61.6704V264.942" stroke="black" stroke-linejoin="round"/>
<path opacity="0.2" d="M224.074 99.686H321.305" stroke="black" stroke-linejoin="round"/>
<path d="M393.36 205.392C393.36 205.392 383.037 199.663 382.272 212.661C381.506 225.658 379.632 351.824 379.632 351.824" stroke="#263238" stroke-miterlimit="10" stroke-linecap="round"/>
<path d="M376.895 213.84C376.895 213.84 385.316 274.278 381.488 350.715" stroke="#263238" stroke-miterlimit="10" stroke-linecap="round"/>
<path d="M385.166 208.014C385.166 208.014 381.215 210.54 379.006 207.645C376.797 204.749 380.529 199.452 377.246 197.181C373.964 194.911 368.2 198.369 368.2 198.369C368.2 198.369 372.6 199.672 372.477 202.074C372.353 204.477 370.206 205.401 369.925 204.345C369.643 203.289 367.54 197.991 363.949 200.191C362.917 200.802 362.018 201.616 361.309 202.584C360.6 203.552 360.094 204.654 359.822 205.823C359.822 205.823 368.165 204.943 368.666 208.067C369.168 211.191 365.243 207.521 361.802 207.319C358.361 207.117 355.229 207.618 355.449 209.704C355.526 211.546 355.417 213.392 355.123 215.213C357.003 213.647 359.382 212.808 361.829 212.845C365.613 213.065 365.472 215.485 362.031 215.274C358.59 215.063 355.633 218.345 355.633 218.345C355.633 218.345 358.766 223.713 362.753 226.362C366.739 229.011 368.182 228.061 368.64 226.019C369.097 223.977 368.041 218.733 370.444 218.873C372.846 219.014 366.457 227.964 369.564 228.492C372.67 229.02 375.108 228.122 375.917 226.098L376.727 224.083C376.727 224.083 375.653 218.803 376.12 216.797C376.586 214.79 377.149 216.849 377.695 219.305C378.241 221.76 378.575 227.638 379.64 227.357C380.705 227.075 384.04 222.781 384.841 221.109C385.641 219.437 380.441 214.28 380.441 213.25C380.441 212.221 384.524 214.183 385.149 215.257C385.607 216.064 386.021 216.895 386.389 217.747C386.389 217.747 388.897 216.163 388.836 211.332C388.774 206.501 385.166 208.014 385.166 208.014Z" fill="#B83330"/>
<path opacity="0.3" d="M385.166 208.014C385.166 208.014 381.215 210.54 379.006 207.645C376.797 204.749 380.529 199.452 377.246 197.181C373.964 194.911 368.2 198.369 368.2 198.369C368.2 198.369 372.6 199.672 372.477 202.074C372.353 204.477 370.206 205.401 369.925 204.345C369.643 203.289 367.54 197.991 363.949 200.191C362.917 200.802 362.018 201.616 361.309 202.584C360.6 203.552 360.094 204.654 359.822 205.823C359.822 205.823 368.165 204.943 368.666 208.067C369.168 211.191 365.243 207.521 361.802 207.319C358.361 207.117 355.229 207.618 355.449 209.704C355.526 211.546 355.417 213.392 355.123 215.213C357.003 213.647 359.382 212.808 361.829 212.845C365.613 213.065 365.472 215.485 362.031 215.274C358.59 215.063 355.633 218.345 355.633 218.345C355.633 218.345 358.766 223.713 362.753 226.362C366.739 229.011 368.182 228.061 368.64 226.019C369.097 223.977 368.041 218.733 370.444 218.873C372.846 219.014 366.457 227.964 369.564 228.492C372.67 229.02 375.108 228.122 375.917 226.098L376.727 224.083C376.727 224.083 375.653 218.803 376.12 216.797C376.586 214.79 377.149 216.849 377.695 219.305C378.241 221.76 378.575 227.638 379.64 227.357C380.705 227.075 384.04 222.781 384.841 221.109C385.641 219.437 380.441 214.28 380.441 213.25C380.441 212.221 384.524 214.183 385.149 215.257C385.607 216.064 386.021 216.895 386.389 217.747C386.389 217.747 388.897 216.163 388.836 211.332C388.774 206.501 385.166 208.014 385.166 208.014Z" fill="#263238"/>
<path d="M365.199 219.349C367.769 216.172 371.562 211.869 374.747 209.81" stroke="#263238" stroke-miterlimit="10" stroke-linecap="round"/>
<path d="M362.172 223.229C362.172 223.229 362.832 222.349 363.932 220.933" stroke="#263238" stroke-miterlimit="10" stroke-linecap="round"/>
<path d="M376.385 210.602C376.385 210.602 380.204 216.005 380.908 221.566" stroke="#263238" stroke-miterlimit="10" stroke-linecap="round"/>
<path d="M372.046 213.84C372.046 213.84 373.12 213.215 372.715 220.097" stroke="#263238" stroke-miterlimit="10" stroke-linecap="round"/>
<path d="M374.88 207.398C374.88 207.398 377.062 205.462 375.909 201.59" stroke="#263238" stroke-miterlimit="10" stroke-linecap="round"/>
<path d="M371.888 210.681L370.33 207.83" stroke="#263238" stroke-miterlimit="10" stroke-linecap="round"/>
<path d="M368.605 213.593C368.605 213.593 363.65 209.844 360.553 209.668" stroke="#263238" stroke-miterlimit="10" stroke-linecap="round"/>
<path d="M399.229 197.815C399.229 197.815 399.071 203.491 394.645 203.764C390.218 204.037 387.473 196.653 382.941 198.431C378.409 200.209 377.969 208.305 377.969 208.305C377.969 208.305 382.272 204.785 384.586 206.545C386.901 208.305 386.346 211.077 385.123 210.645C383.9 210.214 377.133 208.701 376.895 213.796C376.807 215.237 377.011 216.682 377.495 218.043C377.979 219.404 378.733 220.653 379.711 221.716C379.711 221.716 384.507 212.766 387.992 214.394C391.477 216.022 385.114 217.448 382.562 220.757C380.01 224.065 378.382 227.541 380.626 228.747C382.519 229.923 384.288 231.288 385.906 232.821C385.622 229.874 386.399 226.922 388.097 224.497C390.905 220.862 393.219 222.649 390.667 225.957C388.115 229.266 389.391 234.449 389.391 234.449C389.391 234.449 396.897 234.969 402.274 232.786C407.651 230.604 407.669 228.518 405.944 226.626C404.219 224.734 398.235 222.226 400.021 219.956C401.808 217.685 406.393 230.137 409.024 227.418C411.655 224.699 412.438 221.619 410.96 219.428L409.499 217.36C409.499 217.36 403.515 214.861 401.79 213.004C400.065 211.147 402.556 212.009 405.381 213.136C408.205 214.262 414.33 217.932 414.77 216.656C415.21 215.38 413.195 209.123 412.051 207.187C410.907 205.251 402.204 206.967 401.209 206.21C400.215 205.453 404.932 202.752 406.428 202.849C407.547 202.946 408.66 203.102 409.763 203.315C409.763 203.315 409.895 199.725 405.011 196.486C400.127 193.248 399.229 197.815 399.229 197.815Z" fill="#B83330"/>
<path opacity="0.2" d="M399.229 197.815C399.229 197.815 399.071 203.491 394.645 203.764C390.218 204.037 387.473 196.653 382.941 198.431C378.409 200.209 377.969 208.305 377.969 208.305C377.969 208.305 382.272 204.785 384.586 206.545C386.901 208.305 386.346 211.077 385.123 210.645C383.9 210.214 377.133 208.701 376.895 213.796C376.807 215.237 377.011 216.682 377.495 218.043C377.979 219.404 378.733 220.653 379.711 221.716C379.711 221.716 384.507 212.766 387.992 214.394C391.477 216.022 385.114 217.448 382.562 220.757C380.01 224.065 378.382 227.541 380.626 228.747C382.519 229.923 384.288 231.288 385.906 232.821C385.622 229.874 386.399 226.922 388.097 224.497C390.905 220.862 393.219 222.649 390.667 225.957C388.115 229.266 389.391 234.449 389.391 234.449C389.391 234.449 396.897 234.969 402.274 232.786C407.651 230.604 407.669 228.518 405.944 226.626C404.219 224.734 398.235 222.226 400.021 219.956C401.808 217.685 406.393 230.137 409.024 227.418C411.655 224.699 412.438 221.619 410.96 219.428L409.499 217.36C409.499 217.36 403.515 214.861 401.79 213.004C400.065 211.147 402.556 212.009 405.381 213.136C408.205 214.262 414.33 217.932 414.77 216.656C415.21 215.38 413.195 209.123 412.051 207.187C410.907 205.251 402.204 206.967 401.209 206.21C400.215 205.453 404.932 202.752 406.428 202.849C407.547 202.946 408.66 203.102 409.763 203.315C409.763 203.315 409.895 199.725 405.011 196.486C400.127 193.248 399.229 197.815 399.229 197.815Z" fill="#263238"/>
<path d="M396.95 225.579C395.515 220.836 393.79 214.139 393.905 209.519" stroke="#263238" stroke-miterlimit="10" stroke-linecap="round"/>
<path d="M398.789 231.202C398.789 231.202 398.323 229.918 397.672 227.911" stroke="#263238" stroke-miterlimit="10" stroke-linecap="round"/>
<path d="M395.841 208.375C395.841 208.375 403.858 208.226 409.921 211.314" stroke="#263238" stroke-miterlimit="10" stroke-linecap="round"/>
<path d="M396.088 214.887C396.088 214.887 396.193 213.391 402.802 218.486" stroke="#263238" stroke-miterlimit="10" stroke-linecap="round"/>
<path d="M391.599 207.733C391.599 207.733 391.142 204.213 386.486 202.743" stroke="#263238" stroke-miterlimit="10" stroke-linecap="round"/>
<path d="M392.858 212.925L388.934 212.538" stroke="#263238" stroke-miterlimit="10" stroke-linecap="round"/>
<path d="M393.535 218.24C393.535 218.24 386.407 220.651 384.11 223.625" stroke="#263238" stroke-miterlimit="10" stroke-linecap="round"/>
<path d="M351.683 235.584C351.683 235.584 376.323 255.631 373.85 349.914" stroke="#263238" stroke-miterlimit="10" stroke-linecap="round"/>
<path d="M379.482 231.651C379.482 231.651 378.761 238.18 373.63 238.084C368.5 237.987 366.027 229.204 360.624 230.832C355.221 232.46 353.953 241.753 353.953 241.753C353.953 241.753 359.233 238.075 361.759 240.354C364.285 242.633 363.387 245.748 361.988 245.132C360.589 244.516 352.95 242.14 352.202 247.992C351.956 249.656 352.05 251.353 352.48 252.979C352.91 254.605 353.665 256.127 354.701 257.452C354.701 257.452 361.073 247.57 364.945 249.788C368.817 252.005 361.328 253.035 358.081 256.608C354.833 260.18 352.616 264.052 355.08 265.645C357.159 267.179 359.075 268.922 360.8 270.846C360.8 270.846 360.545 265.39 364.126 261.456C367.708 257.523 370.207 259.802 366.951 263.375C363.695 266.948 364.672 273.055 364.672 273.055C364.672 273.055 373.287 274.357 379.693 272.342C386.1 270.327 386.329 267.942 384.507 265.619C382.685 263.296 376.024 259.855 378.303 257.356C380.582 254.856 384.701 269.676 387.983 266.824C391.265 263.973 392.48 260.48 390.984 257.84L389.488 255.2C389.488 255.2 382.8 251.68 381.04 249.365C379.28 247.051 382.017 248.3 385.167 249.858C388.317 251.416 395.049 256.238 395.665 254.839C396.281 253.44 394.565 246.039 393.43 243.654C392.295 241.269 382.078 242.475 381.005 241.498C379.931 240.521 385.625 237.864 387.349 238.119C388.631 238.346 389.9 238.639 391.151 238.999C391.151 238.999 391.644 234.863 386.311 230.674C380.978 226.485 379.482 231.651 379.482 231.651Z" fill="#B83330"/>
<path opacity="0.3" d="M379.482 231.651C379.482 231.651 378.761 238.18 373.63 238.084C368.5 237.987 366.027 229.204 360.624 230.832C355.221 232.46 353.953 241.753 353.953 241.753C353.953 241.753 359.233 238.075 361.759 240.354C364.285 242.633 363.387 245.748 361.988 245.132C360.589 244.516 352.95 242.14 352.202 247.992C351.956 249.656 352.05 251.353 352.48 252.979C352.91 254.605 353.665 256.127 354.701 257.452C354.701 257.452 361.073 247.57 364.945 249.788C368.817 252.005 361.328 253.035 358.081 256.608C354.833 260.18 352.616 264.052 355.08 265.645C357.159 267.179 359.075 268.922 360.8 270.846C360.8 270.846 360.545 265.39 364.126 261.456C367.708 257.523 370.207 259.802 366.951 263.375C363.695 266.948 364.672 273.055 364.672 273.055C364.672 273.055 373.287 274.357 379.693 272.342C386.1 270.327 386.329 267.942 384.507 265.619C382.685 263.296 376.024 259.855 378.303 257.356C380.582 254.856 384.701 269.676 387.983 266.824C391.265 263.973 392.48 260.48 390.984 257.84L389.488 255.2C389.488 255.2 382.8 251.68 381.04 249.365C379.28 247.051 382.017 248.3 385.167 249.858C388.317 251.416 395.049 256.238 395.665 254.839C396.281 253.44 394.565 246.039 393.43 243.654C392.295 241.269 382.078 242.475 381.005 241.498C379.931 240.521 385.625 237.864 387.349 238.119C388.631 238.346 389.9 238.639 391.151 238.999C391.151 238.999 391.644 234.863 386.311 230.674C380.978 226.485 379.482 231.651 379.482 231.651Z" fill="#263238"/>
<path d="M374.228 263.472C373.023 257.84 371.668 249.92 372.24 244.64" stroke="#263238" stroke-miterlimit="10" stroke-linecap="round"/>
<path d="M375.822 270.16C375.822 270.16 375.399 268.628 374.845 266.244" stroke="#263238" stroke-miterlimit="10" stroke-linecap="round"/>
<path d="M374.571 243.513C374.571 243.513 383.829 244.103 390.526 248.239" stroke="#263238" stroke-miterlimit="10" stroke-linecap="round"/>
<path d="M374.237 251.055C374.237 251.055 374.501 249.295 381.647 255.842" stroke="#263238" stroke-miterlimit="10" stroke-linecap="round"/>
<path d="M369.723 242.37C369.723 242.37 369.529 238.278 364.293 236.13" stroke="#263238" stroke-miterlimit="10" stroke-linecap="round"/>
<path d="M370.7 248.485L366.212 247.676" stroke="#263238" stroke-miterlimit="10" stroke-linecap="round"/>
<path d="M370.99 254.628C370.99 254.628 362.533 256.74 359.603 259.961" stroke="#263238" stroke-miterlimit="10" stroke-linecap="round"/>
<path d="M379.482 295.31C379.482 295.31 378.761 301.849 373.63 301.743C368.5 301.638 366.027 292.864 360.624 294.492C355.221 296.12 353.953 305.413 353.953 305.413C353.953 305.413 359.233 301.743 361.759 304.014C364.285 306.284 363.387 309.417 361.988 308.792C360.589 308.167 352.95 305.8 352.202 311.652C351.956 313.316 352.05 315.012 352.48 316.639C352.91 318.265 353.665 319.787 354.701 321.112C354.701 321.112 361.073 311.23 364.945 313.447C368.817 315.665 361.328 316.694 358.081 320.267C354.833 323.84 352.616 327.712 355.08 329.305C357.159 330.841 359.076 332.587 360.8 334.514C360.8 334.514 360.545 329.05 364.126 325.116C367.708 321.182 370.207 323.462 366.951 327.034C363.695 330.607 364.672 336.714 364.672 336.714C364.672 336.714 373.287 338.017 379.693 336.01C386.1 334.004 386.329 331.61 384.507 329.278C382.685 326.946 376.024 323.523 378.303 321.015C380.582 318.507 384.701 333.379 387.983 330.484C391.265 327.589 392.471 324.113 390.984 321.446L389.488 318.806C389.488 318.806 382.826 315.357 381.005 313.051C379.183 310.745 381.981 311.978 385.132 313.535C388.282 315.093 395.014 319.915 395.63 318.516C396.246 317.117 394.53 309.672 393.395 307.331C392.26 304.99 382.043 306.152 380.969 305.184C379.896 304.216 385.589 301.541 387.314 301.805C388.596 302.029 389.865 302.323 391.116 302.685C391.116 302.685 391.609 298.558 386.276 294.36C380.943 290.162 379.482 295.31 379.482 295.31Z" fill="#B83330"/>
<path opacity="0.3" d="M379.482 295.31C379.482 295.31 378.761 301.849 373.63 301.743C368.5 301.638 366.027 292.864 360.624 294.492C355.221 296.12 353.953 305.413 353.953 305.413C353.953 305.413 359.233 301.743 361.759 304.014C364.285 306.284 363.387 309.417 361.988 308.792C360.589 308.167 352.95 305.8 352.202 311.652C351.956 313.316 352.05 315.012 352.48 316.639C352.91 318.265 353.665 319.787 354.701 321.112C354.701 321.112 361.073 311.23 364.945 313.447C368.817 315.665 361.328 316.694 358.081 320.267C354.833 323.84 352.616 327.712 355.08 329.305C357.159 330.841 359.076 332.587 360.8 334.514C360.8 334.514 360.545 329.05 364.126 325.116C367.708 321.182 370.207 323.462 366.951 327.034C363.695 330.607 364.672 336.714 364.672 336.714C364.672 336.714 373.287 338.017 379.693 336.01C386.1 334.004 386.329 331.61 384.507 329.278C382.685 326.946 376.024 323.523 378.303 321.015C380.582 318.507 384.701 333.379 387.983 330.484C391.265 327.589 392.471 324.113 390.984 321.446L389.488 318.806C389.488 318.806 382.826 315.357 381.005 313.051C379.183 310.745 381.981 311.978 385.132 313.535C388.282 315.093 395.014 319.915 395.63 318.516C396.246 317.117 394.53 309.672 393.395 307.331C392.26 304.99 382.043 306.152 380.969 305.184C379.896 304.216 385.589 301.541 387.314 301.805C388.596 302.029 389.865 302.323 391.116 302.685C391.116 302.685 391.609 298.558 386.276 294.36C380.943 290.162 379.482 295.31 379.482 295.31Z" fill="#263238"/>
<path d="M374.228 327.131C373.022 321.525 371.667 313.588 372.222 308.308" stroke="#263238" stroke-miterlimit="10" stroke-linecap="round"/>
<path d="M375.822 333.801C375.822 333.801 375.399 332.27 374.845 329.894" stroke="#263238" stroke-miterlimit="10" stroke-linecap="round"/>
<path d="M374.571 307.172C374.571 307.172 383.829 307.762 390.526 311.898" stroke="#263238" stroke-miterlimit="10" stroke-linecap="round"/>
<path d="M374.237 314.714C374.237 314.714 374.501 312.998 381.647 319.501" stroke="#263238" stroke-miterlimit="10" stroke-linecap="round"/>
<path d="M369.723 306.038C369.723 306.038 369.529 301.937 364.293 299.79" stroke="#263238" stroke-miterlimit="10" stroke-linecap="round"/>
<path d="M370.7 312.145L366.212 311.335" stroke="#263238" stroke-miterlimit="10" stroke-linecap="round"/>
<path d="M370.99 318.296C370.99 318.296 362.533 320.399 359.603 323.62" stroke="#263238" stroke-miterlimit="10" stroke-linecap="round"/>
<path d="M360.474 281.063C360.474 281.063 374.994 333.863 376.525 350.301L373.462 253.545" stroke="#263238" stroke-miterlimit="10" stroke-linecap="round"/>
<path d="M395.63 273.037C376.525 269.596 376.525 350.301 376.525 350.301" stroke="#263238" stroke-miterlimit="10" stroke-linecap="round"/>
<path d="M378.813 349.914C378.813 349.914 367.734 227.594 399.837 227.594" stroke="#263238" stroke-miterlimit="10" stroke-linecap="round"/>
<path d="M388.353 270.723C385.713 267.784 380.195 267.784 376.913 275.29C373.63 282.797 376.587 281.45 376.587 281.45C376.587 281.45 382.747 279.497 386.698 278.194C390.649 276.892 395.833 273.627 396.158 275.554C396.484 277.481 393.518 279.47 389.998 280.121C386.478 280.773 376.948 283.386 377.925 285.34C378.901 287.293 381.189 293.172 381.189 293.172C383.975 290.806 386.915 288.627 389.989 286.651C394.231 284.011 396.845 285.014 394.557 287.953C392.269 290.893 385.757 294.113 387.05 298.065C388.344 302.016 396.185 306.865 396.185 306.865C396.185 306.865 397.17 298.707 399.449 296.102C401.729 293.497 401.737 296.428 401.086 300.995C400.756 302.938 400.536 304.897 400.426 306.865L409.569 310.129C411.06 307.854 412.694 305.676 414.462 303.609L416.09 301.972C416.09 301.972 408.909 295.812 408.584 291.861C408.258 287.909 413.485 291.861 415.113 292.512C416.741 293.163 419.355 297.73 419.355 297.73C419.355 297.73 420.983 290.224 421.309 287.619L421.634 284.979C421.634 284.979 414.788 282.339 412.174 282.339C409.561 282.339 408.258 284.293 408.258 281.679C408.258 279.065 410.898 277.437 413.811 277.772C416.466 278.216 419.082 278.869 421.634 279.725C421.634 279.725 423.597 278.097 422.945 273.196C422.294 268.294 420.657 268.303 416.741 269.614C412.825 270.925 410.221 273.856 407.281 273.856C404.342 273.856 405.979 270.265 407.933 269.289C409.886 268.312 414.788 266.349 415.765 266.024C416.741 265.698 410.546 261.131 407.281 260.48C404.017 259.829 399.793 262.125 400.101 265.373C400.752 272.351 390.957 273.68 388.353 270.723Z" fill="#B83330"/>
<path d="M409.35 304.312C409.446 305.298 409.517 306.284 409.561 307.261" stroke="#263238" stroke-miterlimit="10" stroke-linecap="round"/>
<path d="M402.802 280.896C405.676 287.365 407.745 294.163 408.962 301.136" stroke="#263238" stroke-miterlimit="10" stroke-linecap="round"/>
<path d="M401.623 278.273C400.003 274.753 398.789 272.677 398.789 272.677C400.571 271.836 402.051 270.47 403.031 268.761C403.796 267.227 404.915 265.896 406.295 264.88" stroke="#263238" stroke-miterlimit="10" stroke-linecap="round"/>
<path d="M387.367 283.773C387.367 283.773 399.115 278.881 399.115 279.857" stroke="#263238" stroke-miterlimit="10" stroke-linecap="round"/>
<path d="M405.68 277.569C405.68 277.569 410.898 274.929 415.465 274.929" stroke="#263238" stroke-miterlimit="10" stroke-linecap="round"/>
<path d="M403.682 285.401C401.435 287.267 399.372 289.345 397.522 291.605C395.615 293.852 394.073 296.385 392.955 299.112" stroke="#263238" stroke-miterlimit="10" stroke-linecap="round"/>
<path d="M407.272 286.713C407.272 286.713 414.128 284.75 417.718 288.015" stroke="#263238" stroke-miterlimit="10" stroke-linecap="round"/>
<path d="M419.681 242.624C416.161 240.521 412.201 240.477 410.282 238.224C408.364 235.972 412.13 234.889 414.154 235.725C416.178 236.561 420.869 238.972 421.757 239.492C422.646 240.011 422.03 232.346 420.385 229.451C418.739 226.556 414.225 224.875 411.981 227.242C407.229 232.223 399.828 225.693 400.338 221.795C400.849 217.896 397.205 213.708 389.4 216.163C381.594 218.618 384.507 219.982 384.507 219.982C384.507 219.982 390.051 223.379 393.597 225.482C397.144 227.585 403.04 229.389 401.773 230.912C400.505 232.434 397.109 231.51 394.257 229.231C391.406 226.952 383.24 221.513 382.404 223.537C381.568 225.561 378.629 231.132 378.629 231.132C382.244 231.684 385.819 232.478 389.329 233.508C394.081 234.995 395.058 237.608 391.345 237.811C387.631 238.013 380.89 235.224 378.787 238.779C376.684 242.334 378.118 251.451 378.118 251.451C378.118 251.451 384.921 246.84 388.388 246.857C391.855 246.875 389.646 248.793 385.748 251.257C384.065 252.288 382.441 253.41 380.881 254.619L384.401 263.656C387.1 263.29 389.818 263.096 392.541 263.076L394.838 263.234C394.838 263.234 394.838 253.748 397.557 250.914C400.277 248.08 400.769 254.61 401.341 256.264C401.913 257.919 400.18 262.891 400.18 262.891C400.18 262.891 406.921 259.204 409.103 257.743L411.285 256.273C411.285 256.273 408.769 249.392 407.053 247.42C405.337 245.449 403.013 245.748 404.985 244.032C406.956 242.316 409.895 243.223 411.576 245.652C412.982 247.95 414.203 250.358 415.228 252.85C415.228 252.85 417.745 253.264 421.009 249.559C424.274 245.854 423.28 244.728 419.681 242.624ZM388.81 253.07C386.17 251.759 392.392 249.154 392.392 249.154C394.68 248.828 391.415 254.372 388.81 253.07ZM393.21 240.882C392.101 240.328 395.437 239.219 395.437 239.219C400.25 240.143 394.319 241.445 393.201 240.882H393.21Z" fill="#B83330"/>
<path d="M388.74 259.714C388.062 260.427 387.358 261.131 386.646 261.8" stroke="#263238" stroke-miterlimit="10" stroke-linecap="round"/>
<path d="M402.159 239.413C399.159 245.813 395.385 251.821 390.922 257.303" stroke="#263238" stroke-miterlimit="10" stroke-linecap="round"/>
<path d="M403.339 236.808C404.896 233.288 405.706 231 405.706 231C407.51 231.79 409.511 232.011 411.444 231.634C413.11 231.198 414.856 231.162 416.539 231.528" stroke="#263238" stroke-miterlimit="10" stroke-linecap="round"/>
<path d="M389.84 229.68C389.84 229.68 401.236 235.347 400.497 235.98" stroke="#263238" stroke-miterlimit="10" stroke-linecap="round"/>
<path d="M406.498 239.36C406.498 239.36 411.892 241.595 414.884 245.045" stroke="#263238" stroke-miterlimit="10" stroke-linecap="round"/>
<path d="M399.3 243.038C396.414 242.548 393.488 242.338 390.562 242.413C387.613 242.449 384.688 242.948 381.894 243.892" stroke="#263238" stroke-miterlimit="10" stroke-linecap="round"/>
<path d="M400.672 246.602C400.672 246.602 406.638 250.492 406.533 255.34" stroke="#263238" stroke-miterlimit="10" stroke-linecap="round"/>
<path d="M368.983 287.83C366.123 286.14 362.964 286.07 361.415 284.31C359.866 282.55 362.911 281.67 364.539 282.295C366.167 282.92 369.934 284.935 370.646 285.34C371.359 285.744 370.866 279.584 369.546 277.252C368.226 274.92 364.592 273.574 362.779 275.492C358.96 279.505 353.011 274.243 353.416 271.092C353.821 267.942 350.899 264.58 344.616 266.56C338.333 268.54 340.674 269.632 340.674 269.632C340.674 269.632 345.135 272.368 347.995 274.032C350.855 275.695 355.59 277.173 354.569 278.432C353.548 279.69 350.811 278.907 348.523 277.076C346.235 275.246 339.653 270.864 338.984 272.492C338.315 274.12 335.948 278.608 335.948 278.608C338.859 279.051 341.737 279.689 344.563 280.517C348.382 281.714 349.166 283.817 346.174 283.984C343.182 284.152 337.761 281.899 336.071 284.759C334.382 287.619 335.534 294.958 335.534 294.958C335.534 294.958 341.008 291.244 343.798 291.262C346.587 291.28 344.81 292.82 341.686 294.835C340.332 295.659 339.027 296.561 337.778 297.536L340.612 304.805C342.782 304.513 344.969 304.357 347.159 304.339L349.007 304.471C349.007 304.471 349.007 296.832 351.198 294.571C353.39 292.309 353.777 297.545 354.243 298.883C354.71 300.22 353.31 304.216 353.31 304.216C353.31 304.216 358.731 301.241 360.491 300.071L362.251 298.892C362.251 298.892 360.218 293.348 358.846 291.764C357.473 290.18 355.59 290.417 357.174 289.036C358.758 287.654 361.125 288.384 362.454 290.338C363.583 292.192 364.566 294.131 365.393 296.137C365.393 296.137 367.417 296.463 370.048 293.497C372.679 290.532 371.843 289.52 368.983 287.83ZM344.132 296.234C342.038 295.187 347.027 293.084 347.027 293.084C348.866 292.82 346.235 297.29 344.132 296.234ZM347.652 286.431C346.772 285.991 349.412 285.093 349.412 285.093C353.346 285.841 348.567 286.88 347.67 286.431H347.652Z" fill="#B83330"/>
<path d="M344.079 301.584C343.534 302.165 342.97 302.728 342.398 303.265" stroke="#263238" stroke-miterlimit="10" stroke-linecap="round"/>
<path d="M354.86 285.243C352.451 290.392 349.422 295.227 345.84 299.64" stroke="#263238" stroke-miterlimit="10" stroke-linecap="round"/>
<path d="M355.827 283.148C357.086 280.332 357.737 278.476 357.737 278.476C359.185 279.115 360.795 279.293 362.348 278.986C363.69 278.637 365.095 278.61 366.449 278.907" stroke="#263238" stroke-miterlimit="10" stroke-linecap="round"/>
<path d="M344.96 277.394C344.96 277.394 354.13 281.943 353.531 282.462" stroke="#263238" stroke-miterlimit="10" stroke-linecap="round"/>
<path d="M358.371 285.226C358.371 285.226 362.718 286.986 365.121 289.793" stroke="#263238" stroke-miterlimit="10" stroke-linecap="round"/>
<path d="M352.58 288.165C350.255 287.77 347.897 287.602 345.54 287.663C343.166 287.693 340.812 288.094 338.562 288.851" stroke="#263238" stroke-miterlimit="10" stroke-linecap="round"/>
<path d="M353.681 291.033C353.681 291.033 358.485 294.166 358.397 298.073" stroke="#263238" stroke-miterlimit="10" stroke-linecap="round"/>
<path d="M396.642 323.057C393.782 321.367 390.623 321.297 389.074 319.537C387.525 317.777 390.561 316.844 392.189 317.521C393.817 318.199 397.593 320.161 398.305 320.557C399.018 320.953 398.525 314.802 397.205 312.479C395.885 310.156 392.251 308.792 390.438 310.719C386.619 314.732 380.661 309.478 381.075 306.319C381.489 303.16 378.549 299.816 372.275 301.796C366.001 303.776 368.333 304.867 368.333 304.867C368.333 304.867 372.794 307.595 375.654 309.267C378.514 310.939 383.249 312.409 382.228 313.667C381.207 314.925 378.47 314.151 376.182 312.312C373.894 310.473 367.312 306.108 366.643 307.736C365.974 309.364 363.607 313.843 363.607 313.843C366.523 314.287 369.407 314.922 372.24 315.744C376.068 316.949 376.851 319.053 373.859 319.211C370.867 319.369 365.446 317.125 363.757 319.985C362.067 322.845 363.22 330.185 363.22 330.185C363.22 330.185 368.693 326.48 371.483 326.489C374.273 326.497 372.495 328.046 369.371 330.061C368.017 330.889 366.71 331.791 365.455 332.763L368.297 340.041C370.468 339.748 372.655 339.589 374.845 339.565L376.693 339.697C376.693 339.697 376.693 332.068 378.884 329.806C381.075 327.545 381.462 332.781 381.929 334.109C382.395 335.438 380.996 339.442 380.996 339.442C380.996 339.442 386.417 336.477 388.177 335.297L389.937 334.118C389.937 334.118 387.913 328.583 386.531 326.99C385.149 325.397 383.275 325.644 384.868 324.271C386.461 322.898 388.819 323.62 390.148 325.573C391.278 327.423 392.261 329.359 393.087 331.364C393.087 331.364 395.111 331.698 397.742 328.724C400.373 325.749 399.52 324.72 396.642 323.057ZM371.791 331.461C369.688 330.413 374.677 328.31 374.677 328.31C376.517 328.046 373.894 332.508 371.791 331.461ZM375.311 321.657C374.431 321.209 377.071 320.311 377.071 320.311C381.04 321.059 376.226 322.08 375.329 321.657H375.311Z" fill="#B83330"/>
<path d="M371.737 336.811C371.192 337.383 370.629 337.946 370.048 338.492" stroke="#263238" stroke-miterlimit="10" stroke-linecap="round"/>
<path d="M382.509 320.469C380.097 325.622 377.059 330.457 373.463 334.866" stroke="#263238" stroke-miterlimit="10" stroke-linecap="round"/>
<path d="M383.486 318.375C384.745 315.559 385.387 313.702 385.387 313.702C386.84 314.337 388.451 314.516 390.007 314.213C391.348 313.857 392.753 313.827 394.108 314.125" stroke="#263238" stroke-miterlimit="10" stroke-linecap="round"/>
<path d="M372.627 312.611C372.627 312.611 381.797 317.169 381.198 317.688" stroke="#263238" stroke-miterlimit="10" stroke-linecap="round"/>
<path d="M386.029 320.443C386.029 320.443 390.368 322.203 392.779 325.019" stroke="#263238" stroke-miterlimit="10" stroke-linecap="round"/>
<path d="M380.239 323.382C377.914 322.994 375.556 322.829 373.199 322.889C370.828 322.913 368.476 323.311 366.229 324.068" stroke="#263238" stroke-miterlimit="10" stroke-linecap="round"/>
<path d="M381.339 326.26C381.339 326.26 386.144 329.384 386.056 333.3" stroke="#263238" stroke-miterlimit="10" stroke-linecap="round"/>
<path d="M357.332 233.957C357.332 233.957 353.742 236.597 351.454 233.957C349.166 231.317 352.431 226.125 349.175 224.162C345.919 222.2 340.692 225.799 340.692 225.799C340.692 225.799 344.96 226.776 344.96 229.064C344.96 231.352 342.997 232.32 342.672 231.343C342.346 230.366 340.032 225.473 336.802 227.753C335.859 228.388 335.055 229.207 334.438 230.161C333.821 231.116 333.404 232.185 333.212 233.305C333.212 233.305 341.044 231.994 341.695 234.933C342.346 237.873 338.43 234.608 335.165 234.608C331.9 234.608 329.005 235.259 329.296 237.248C329.472 238.983 329.472 240.731 329.296 242.466C330.969 240.881 333.153 239.945 335.456 239.826C339.046 239.826 339.046 242.114 335.79 242.114C332.534 242.114 329.912 245.37 329.912 245.37C329.912 245.37 333.176 250.272 337.092 252.551C341.008 254.83 342.311 253.853 342.636 251.9C342.962 249.946 341.66 245.045 343.939 245.045C346.218 245.045 340.683 253.845 343.613 254.188C346.544 254.531 348.84 253.528 349.492 251.548L350.143 249.585C350.143 249.585 348.84 244.693 349.166 242.739C349.492 240.785 350.143 242.739 350.794 245.018C351.445 247.297 352.096 252.85 353.082 252.525C354.068 252.199 356.989 247.957 357.649 246.365C358.309 244.772 353.082 240.161 353.082 239.184C353.082 238.207 356.989 239.835 357.649 240.812C358.121 241.552 358.556 242.316 358.952 243.1C358.952 243.1 361.231 241.472 360.905 236.896C360.58 232.32 357.332 233.957 357.332 233.957Z" fill="#B83330"/>
<path d="M339.055 245.793C341.307 242.642 344.651 238.357 347.538 236.236" stroke="#263238" stroke-miterlimit="10" stroke-linecap="round"/>
<path d="M336.45 249.612C336.45 249.612 337.022 248.732 337.955 247.35" stroke="#263238" stroke-miterlimit="10" stroke-linecap="round"/>
<path d="M349.175 236.887C349.175 236.887 353.091 241.789 354.068 247.007" stroke="#263238" stroke-miterlimit="10" stroke-linecap="round"/>
<path d="M345.259 240.152C345.259 240.152 346.236 239.501 346.236 246.03" stroke="#263238" stroke-miterlimit="10" stroke-linecap="round"/>
<path d="M347.538 233.957C347.538 233.957 349.501 231.994 348.189 228.404" stroke="#263238" stroke-miterlimit="10" stroke-linecap="round"/>
<path d="M344.933 237.222L343.296 234.608" stroke="#263238" stroke-miterlimit="10" stroke-linecap="round"/>
<path d="M341.994 240.152C341.994 240.152 337.101 236.887 334.162 236.887" stroke="#263238" stroke-miterlimit="10" stroke-linecap="round"/>
<path d="M390.279 349.087H365.059V385.396H390.279V349.087Z" fill="#263238" stroke="#263238" stroke-width="2" stroke-miterlimit="10" stroke-linecap="round"/>
<path d="M304.744 405.68C334.634 405.68 358.864 402.528 358.864 398.64C358.864 394.752 334.634 391.6 304.744 391.6C274.854 391.6 250.624 394.752 250.624 398.64C250.624 402.528 274.854 405.68 304.744 405.68Z" fill="#263238" stroke="#263238" stroke-width="2" stroke-miterlimit="10" stroke-linecap="round"/>
<path d="M282.383 196.319C280.102 198.756 278.389 201.669 277.367 204.847C275.862 209.863 266.085 234.186 266.587 236.694C267.089 239.202 274.357 242.713 276.865 241.71C279.373 240.707 283.386 229.39 283.386 229.39L282.383 196.319Z" fill="#B83330" stroke="#263238" stroke-linecap="round" stroke-linejoin="round"/>
<path d="M311.336 188.567C311.336 188.567 311.336 188.567 311.292 188.523C311.247 188.478 311.318 188.549 311.336 188.567Z" fill="#263238" stroke="#263238" stroke-linecap="round" stroke-linejoin="round"/>
<path d="M310.799 187.986L310.879 188.075" stroke="#263238" stroke-linecap="round" stroke-linejoin="round"/>
<path d="M331.206 258.817C329.061 253.803 326.619 248.922 323.893 244.2C323.893 244.2 327.985 215.829 327.985 209.686C327.985 203.544 323.893 199.443 320.945 195.941C318.798 193.362 314.926 191.417 312.436 189.525C311.204 193.829 306.487 208.384 299.007 207.636C290.207 206.756 295.487 191.549 295.487 191.549C294.316 194.77 282.912 192.429 280.861 198.862C278.811 205.295 282.032 231.325 282.331 238.929C282.63 246.532 282.912 265.258 281.451 274.613C279.99 283.967 275.889 329.604 277.051 340.419C278.212 351.234 286.124 375.232 286.414 379.033C286.704 382.835 284.364 383.706 284.953 385.757C285.303 386.995 285.499 388.272 285.534 389.558C285.534 389.558 283.492 391.019 279.981 393.958C276.47 396.897 272.668 398.631 277.051 399.801C281.433 400.972 289.925 399.511 289.925 399.511C289.925 399.511 283.193 403.603 286.405 404.791C289.617 405.979 309.514 405.09 313.016 404.791C316.519 404.492 317.698 403.031 317.416 398.631C317.355 396.551 317.06 394.485 316.536 392.471C316.536 392.471 318.587 386.918 318.587 384.287V376.684C318.587 373.753 318.587 361.178 320.928 354.745C323.268 348.313 322.969 342.425 322.969 337.779C322.827 333.763 322.436 329.761 321.799 325.793C321.799 325.793 332.376 302.403 335.28 289.52C338.184 276.637 335.008 267.599 331.206 258.817ZM303.125 364.698C303.125 364.698 301.365 351.833 299.324 345.981C297.282 340.129 296.402 336.617 296.402 335.157C296.402 333.696 302.562 307.665 302.562 307.665C302.562 307.665 301.101 336.037 302.272 345.69C302.981 352 303.266 358.35 303.125 364.698Z" fill="#263238" stroke="#263238" stroke-linecap="round" stroke-linejoin="round"/>
<path d="M314.24 274.322C325.116 272.967 331.118 270.028 334.48 267.282C333.559 264.406 332.48 261.583 331.25 258.825C329.106 253.812 326.664 248.931 323.937 244.209C323.937 244.209 328.029 215.837 328.029 209.695C328.029 203.553 323.937 199.452 320.989 195.949C318.842 193.371 314.97 191.426 312.48 189.534C311.248 193.837 306.531 208.393 299.051 207.645C290.251 206.765 295.531 191.558 295.531 191.558C294.36 194.779 282.956 192.438 280.905 198.871C278.855 205.304 282.076 231.334 282.375 238.937C282.63 245.757 282.894 261.501 281.891 271.436C288.183 273.583 299.464 276.17 314.24 274.322Z" fill="#B83330" stroke="#263238" stroke-linecap="round" stroke-linejoin="round"/>
<path d="M289.106 228.976C289.106 228.976 297.906 239.087 302.482 241.701" stroke="#263238" stroke-linecap="round" stroke-linejoin="round"/>
<path d="M300.414 243.839C301.083 244.218 301.778 244.596 302.482 244.957" stroke="#263238" stroke-linecap="round" stroke-linejoin="round"/>
<path d="M287.47 234.194C290.676 237.247 294.178 239.974 297.924 242.334" stroke="#263238" stroke-linecap="round" stroke-linejoin="round"/>
<path d="M284.636 183.383C284.636 183.383 281.996 192.474 282.876 195.58C283.756 198.686 285.375 203.5 285.375 203.5C285.375 203.5 265.399 232.61 265.135 236.122C264.871 239.633 268.769 242.132 272.272 242.361C275.774 242.59 277.895 240.962 279.153 237.028C280.412 233.094 290.813 204.354 290.813 204.354C290.813 204.354 294.333 196.038 294.967 194.568C295.6 193.098 295.988 186.595 295.988 186.595C295.988 186.595 294.368 184.474 294.228 186.226C293.963 187.917 293.518 189.575 292.899 191.171L290.813 188.531C290.813 188.531 290.813 185.011 290.813 184.008C290.813 183.005 290.329 179.96 289.053 180.629C287.777 181.298 285.815 180.69 284.636 183.383Z" fill="white" stroke="#263238" stroke-linecap="round" stroke-linejoin="round"/>
<path d="M286 187.977L285.12 192.518C285.12 192.518 289.652 197.622 289.089 201.591" stroke="#263238" stroke-linecap="round" stroke-linejoin="round"/>
<path d="M287.919 150.313C287.919 150.313 284.68 147.286 284.082 143.968C283.484 140.65 298.268 137.623 304.903 139.436C311.538 141.249 327.783 148.377 328.443 156.341C329.648 171.134 320.523 178.922 319.388 180.787C316.264 185.953 308.704 184.483 307.015 183.198C305.325 181.914 299.772 171.433 297.053 167.508C294.334 163.583 287.919 150.313 287.919 150.313Z" fill="#263238" stroke="#263238" stroke-linecap="round" stroke-linejoin="round"/>
<path d="M297.053 154.827C297.053 154.827 308.827 161.172 317.882 161.77" stroke="#757575" stroke-linecap="round" stroke-linejoin="round"/>
<path d="M300.08 160.864C300.08 160.864 307.023 170.826 321.508 170.227" stroke="#757575" stroke-linecap="round" stroke-linejoin="round"/>
<path d="M310.437 187.44C309.126 185.081 310.631 182.019 310.957 181.412L306.926 178.948C308.309 178.887 309.683 178.69 311.027 178.358C313.667 177.777 315.427 172.911 313.069 170.755C310.024 168.009 307.225 171.054 307.225 171.054C307.225 171.054 302.544 171.054 299.913 165.202C297.281 159.35 297.273 155.522 293.753 153.762C291.711 152.747 289.754 151.57 287.901 150.242C287.901 150.242 284.653 157.722 284.944 162.993C285.234 168.265 280.297 170.711 280.007 172.172C279.717 173.633 283.527 174.812 283.527 174.812C283.527 174.812 282.937 185.046 284.108 186.252C285.278 187.457 295.548 186.252 295.548 186.252C295.548 186.252 296.718 188.302 295.548 191.532C295.548 191.532 290.268 206.738 299.068 207.618C306.548 208.366 311.265 193.811 312.497 189.508L312.602 189.587C311.744 189.024 311.007 188.294 310.437 187.44Z" fill="white" stroke="#263238" stroke-linecap="round" stroke-linejoin="round"/>
<path d="M288.508 168.441C288.994 168.441 289.388 167.657 289.388 166.69C289.388 165.723 288.994 164.938 288.508 164.938C288.022 164.938 287.628 165.723 287.628 166.69C287.628 167.657 288.022 168.441 288.508 168.441Z" fill="#263238"/>
<path d="M286 177.223C287.048 177.474 288.142 177.453 289.18 177.164C290.217 176.874 291.164 176.325 291.931 175.569" stroke="#263238" stroke-linecap="round" stroke-linejoin="round"/>
<path d="M286.941 161.92C287.279 161.649 287.676 161.461 288.099 161.373C288.523 161.284 288.962 161.297 289.38 161.41C289.798 161.523 290.183 161.734 290.504 162.024C290.825 162.315 291.073 162.677 291.227 163.082" stroke="#263238" stroke-linecap="round" stroke-linejoin="round"/>
<path d="M287.338 401.403C291.958 400.523 299.042 398.253 300.204 394.53C301.664 389.849 301.964 389.558 301.964 389.558C298.52 390.935 294.721 391.142 291.148 390.148C291.148 390.148 290.559 386.047 287.928 385.748C285.719 385.502 285.569 388.326 285.578 389.268C285.578 389.453 285.578 389.558 285.578 389.558C285.578 389.558 283.536 391.019 280.025 393.958C276.514 396.898 272.712 398.631 277.095 399.802C281.477 400.972 289.969 399.511 289.969 399.511C289.051 400.082 288.172 400.715 287.338 401.403Z" fill="white" stroke="#263238" stroke-linecap="round" stroke-linejoin="round"/>
<path d="M317.46 398.64C317.366 397.068 317.184 395.502 316.914 393.95C313.046 394.676 309.097 394.877 305.175 394.548C305.175 394.548 303.415 385.484 300.493 391.028C297.572 396.572 289.933 399.511 289.933 399.511C289.933 399.511 283.201 403.603 286.413 404.791C289.625 405.979 309.522 405.09 313.025 404.791C316.527 404.492 317.75 403.04 317.46 398.64Z" fill="white" stroke="#263238" stroke-linecap="round" stroke-linejoin="round"/>
<path d="M315.489 206.853C315.489 206.853 306.961 237.195 306.689 239.958C306.416 242.721 309.698 250.993 314.961 249.735C320.223 248.477 323.488 242.968 324.491 237.415C325.494 231.862 331.531 213.083 331.531 208.322C331.531 203.561 318.745 195.025 318.745 195.025" fill="#B83330"/>
<path d="M315.489 206.853C315.489 206.853 306.961 237.195 306.689 239.958C306.416 242.721 309.698 250.993 314.961 249.735C320.223 248.477 323.488 242.968 324.491 237.415C325.494 231.862 331.531 213.083 331.531 208.322C331.531 203.561 318.745 195.025 318.745 195.025" stroke="#263238" stroke-linecap="round" stroke-linejoin="round"/>
<path d="M304.832 207.425C304.832 207.425 309.127 197.604 309.32 196.108C309.514 194.612 307.376 189.543 305.862 187.581C304.348 185.618 295.636 184.501 296.472 185.865C297.308 187.229 300.661 188.681 300.661 188.681C300.661 188.681 297.942 201.986 298.435 204.072C298.928 206.157 300.195 210.117 300.195 210.117C300.195 210.117 305.475 243.909 305.712 245.969C305.95 248.028 309.963 250.307 313.043 249.937C316.123 249.568 317.997 246.778 318.323 242.017C318.648 237.257 308.44 218.495 307.763 215.881C307.085 213.268 304.832 207.425 304.832 207.425Z" fill="white" stroke="#263238" stroke-linecap="round" stroke-linejoin="round"/>
<path d="M305.861 187.581C306.031 187.809 306.142 188.075 306.187 188.355C306.231 188.635 306.207 188.922 306.117 189.191C305.87 190.318 304.99 193.943 304.99 193.943" stroke="#263238" stroke-linecap="round" stroke-linejoin="round"/>
<path d="M307.868 192.192L306.741 195.941" stroke="#263238" stroke-linecap="round" stroke-linejoin="round"/>
<path d="M180.725 212.907L185.38 218.988L225.121 222.93L222.991 227.885L175.718 231.519L167.833 215.054L180.725 212.907Z" fill="white" stroke="#263238" stroke-linecap="round" stroke-linejoin="round"/>
<path d="M174.996 189.279L185.019 213.981L173.562 217.915L163.899 197.868L174.996 189.279Z" fill="#B83330" stroke="#263238" stroke-linecap="round" stroke-linejoin="round"/>
<path d="M178.921 179.097C178.921 179.097 176.132 194.832 174.521 200.957C172.911 207.081 164.199 218.618 159.825 222.64C155.452 226.661 146.537 237.846 146.537 237.846V172.797L159.13 163.53L178.921 179.097Z" fill="#B83330" stroke="#263238" stroke-linecap="round" stroke-linejoin="round"/>
<path d="M163.363 140.448C163.363 140.448 164.938 146.74 165.633 147.796C166.328 148.852 166.337 154.616 163.873 157.758C161.409 160.899 158.443 164.058 158.443 164.058L173.483 174.9C173.483 174.9 177.883 167.728 179.783 165.801C181.214 164.449 182.797 163.268 184.5 162.281C184.5 162.281 179.22 157.731 178.903 151.967C178.587 146.203 178.736 139.022 178.736 139.022L163.363 140.448Z" fill="white" stroke="#263238" stroke-linecap="round" stroke-linejoin="round"/>
<path d="M175.604 156.569L178.648 166.927L184.518 162.307L175.604 156.569Z" fill="#263238" stroke="#263238" stroke-linecap="round" stroke-linejoin="round"/>
<path d="M198.404 139.577C198.404 139.577 197.999 143.246 197.999 144.32C197.999 145.393 201.678 147.84 201.678 149.389C201.678 150.937 197.656 153.243 197.656 153.243C197.656 153.243 195.21 162.685 193.634 164.428C192.059 166.17 180.69 163.205 177.891 160.582C175.093 157.96 172.998 148.165 172.822 145.2C172.646 142.234 172.822 138.547 172.822 138.547L197.304 137.667L198.404 139.577Z" fill="white" stroke="#263238" stroke-linecap="round" stroke-linejoin="round"/>
<path d="M180.153 139.304C179.94 139.743 179.83 140.224 179.83 140.712C179.83 141.2 179.94 141.681 180.153 142.12C180.809 143.014 181.689 143.718 182.705 144.161L179.642 144.417L179.387 145.437C178.306 145.027 177.332 144.377 176.537 143.538C175.741 142.698 175.146 141.69 174.794 140.589C173.518 136.752 172.497 142.12 172.497 142.12L172.752 146.969C171.503 148.484 169.935 149.704 168.158 150.541L165.598 151.562C165.598 151.562 163.838 139.814 164.066 137.262C164.295 134.71 172.497 133.689 174.283 134.2C176.07 134.71 180.153 136.497 180.153 139.304Z" fill="#263238" stroke="#263238" stroke-linecap="round" stroke-linejoin="round"/>
<path d="M193.96 144.118C193.96 145.182 193.608 146.045 193.177 146.045C192.746 146.045 192.394 145.165 192.394 144.118C192.394 143.07 192.746 142.199 193.177 142.199C193.608 142.199 193.96 143.062 193.96 144.118Z" fill="#263238"/>
<path d="M189.596 152.336C190.202 153.178 191.029 153.836 191.986 154.238C192.942 154.64 193.991 154.771 195.017 154.616" stroke="#263238" stroke-linecap="round" stroke-linejoin="round"/>
<path d="M163.002 141.548C163.002 141.548 181.262 140.985 188.293 140.421C195.325 139.858 198.405 139.541 198.405 139.541C198.405 139.541 196.715 125.778 196.161 122.117C195.606 118.457 180.981 113.414 174.521 114.532C168.062 115.649 161.321 121.836 160.749 126.333C160.177 130.829 163.002 141.548 163.002 141.548Z" fill="#B83330" stroke="#263238" stroke-linecap="round" stroke-linejoin="round"/>
<path d="M175.921 144.32C175.921 144.32 173.113 137.579 170.588 138.978C168.062 140.377 168.335 145.728 170.025 147.409C171.714 149.089 175.366 147.972 175.366 147.972" fill="white"/>
<path d="M175.921 144.32C175.921 144.32 173.113 137.579 170.588 138.978C168.062 140.377 168.335 145.728 170.025 147.409C171.714 149.089 175.366 147.972 175.366 147.972" stroke="#263238" stroke-linecap="round" stroke-linejoin="round"/>
<path d="M186.885 140.703C186.885 140.703 195.315 136.206 198.686 136.206C202.056 136.206 215.265 135.925 213.575 139.295C211.886 142.666 200.93 141.266 196.16 141.266C193.06 141.249 189.964 141.061 186.885 140.703Z" fill="white" stroke="#263238" stroke-linecap="round" stroke-linejoin="round"/>
<path d="M159.517 158.286L182.423 173.501L180.848 182.239L155.495 163.882L159.517 158.286Z" fill="white" stroke="#263238" stroke-linecap="round" stroke-linejoin="round"/>
<path d="M233.305 190.458C233.305 190.458 235.76 182.415 240.301 181.72C244.841 181.025 252.541 182.063 252.717 184.36C252.893 186.657 249.4 190.133 249.4 190.133L233.305 190.458Z" fill="#B83330" stroke="#263238" stroke-linecap="round" stroke-linejoin="round"/>
<path d="M250.799 182.618C246.997 182.873 243.759 189.772 243.513 190.238L249.444 190.115C249.444 190.115 252.964 186.595 252.762 184.342C252.665 183.647 251.908 183.04 250.799 182.618Z" fill="#263238" stroke="#263238" stroke-linecap="round" stroke-linejoin="round"/>
<path d="M228.8 180.664C228.8 180.664 219.533 178.569 217.43 182.063C215.327 185.556 224.25 190.282 224.25 190.282H236.984L228.8 180.664Z" fill="#B83330" stroke="#263238" stroke-linecap="round" stroke-linejoin="round"/>
<path d="M238.383 190.458C238.383 190.458 233.482 179.097 228.8 180.664C224.118 182.23 233.2 190.282 234.221 190.282L238.383 190.458Z" fill="#263238" stroke="#263238" stroke-linecap="round" stroke-linejoin="round"/>
<path d="M254.997 190.282H211.103V227.876H254.997V190.282Z" fill="white" stroke="#263238" stroke-linecap="round" stroke-linejoin="round"/>
<path d="M254.988 190.282H241.7V227.876H254.988V190.282Z" fill="white" stroke="#263238" stroke-linecap="round" stroke-linejoin="round"/>
<path d="M231.738 190.282H222.991V227.876H231.738V190.282Z" fill="#B83330" stroke="#263238" stroke-linecap="round" stroke-linejoin="round"/>
<path d="M245.203 190.634V209L249.049 203.403L252.375 207.944V190.458L245.203 190.634Z" fill="#B83330" stroke="#263238" stroke-linecap="round" stroke-linejoin="round"/>
<path d="M177.874 215.468L182.599 223.159L217.043 225.086C217.043 225.086 224.391 219.137 224.963 219.137C225.535 219.137 229.679 218.961 232.478 219.137C235.276 219.313 237.027 217.738 237.203 218.618C237.235 219.257 237.042 219.886 236.658 220.398C236.274 220.909 235.723 221.269 235.1 221.417C233.088 221.887 231.104 222.475 229.16 223.177L231.607 225.456C231.607 225.456 240.873 227.216 240.345 228.096C239.817 228.976 233.525 233.517 233.525 233.517C233.525 233.517 227.409 233.86 225.139 232.813C223.255 232.008 221.328 231.308 219.366 230.718C219.366 230.718 174.943 237.714 171.846 238.409C168.748 239.105 166.249 235.963 165.545 234.564C164.841 233.165 161.523 221.1 161.523 221.1L177.874 215.468Z" fill="white" stroke="#263238" stroke-linecap="round" stroke-linejoin="round"/>
<path d="M165.809 173.36C165.809 173.36 160.74 169.338 156.542 172.312C152.345 175.287 148.851 182.098 149.898 187.176C150.946 192.253 158.637 224.074 158.637 224.074L180.637 216.726L170.147 179.476" fill="#B83330"/>
<path d="M165.809 173.36C165.809 173.36 160.74 169.338 156.542 172.312C152.345 175.287 148.851 182.098 149.898 187.176C150.946 192.253 158.637 224.074 158.637 224.074L180.637 216.726L170.147 179.476" stroke="#263238" stroke-linecap="round" stroke-linejoin="round"/>
<path d="M147.928 377.634L55.7387 365.059C53.8027 364.795 52.2188 362.199 52.2188 359.269V83.547C52.2188 80.6166 53.7851 78.0206 55.7387 77.7566L147.928 65.1814C150.224 64.8646 152.099 67.2142 152.099 70.4614V372.389C152.099 375.601 150.224 377.951 147.928 377.634Z" fill="#263238" stroke="#263238" stroke-linecap="round" stroke-linejoin="round"/>
<path d="M144.196 377.124L52.5796 364.628C50.6524 364.364 49.0596 361.777 49.0596 358.855V83.9605C49.0596 81.0301 50.6084 78.4517 52.5796 78.1877L144.196 65.6917C146.476 65.3749 148.332 67.7245 148.332 70.9189V371.879C148.332 375.091 146.476 377.441 144.196 377.124Z" fill="white" stroke="#263238" stroke-linecap="round" stroke-linejoin="round"/>
<path d="M103.365 86.9349L91.0445 88.4397C90.3493 88.5277 89.7949 87.7709 89.7949 86.7589C89.7949 85.7469 90.3493 84.8493 91.0445 84.7701L103.365 83.2125C104.069 83.1245 104.641 83.8901 104.641 84.9197C104.641 85.9405 104.069 86.8469 103.365 86.9349Z" fill="#263238"/>
<path d="M99.2461 354.473C99.2461 352.88 98.3661 351.49 97.2661 351.358C96.1661 351.226 95.3037 352.414 95.3037 353.998C95.3037 355.582 96.1837 356.972 97.2661 357.113C98.3485 357.254 99.2461 356.066 99.2461 354.473Z" fill="#263238"/>
<path d="M151.368 116.872L149.221 117.075V97.9349L151.368 97.7061V116.872Z" fill="white" stroke="#263238" stroke-linecap="round" stroke-linejoin="round"/>
<path d="M151.368 150.427L149.221 150.559V131.428L151.368 131.261V150.427Z" fill="white" stroke="#263238" stroke-linecap="round" stroke-linejoin="round"/>
<path d="M151.368 171.996L149.221 172.093V152.953L151.368 152.83V171.996Z" fill="white" stroke="#263238" stroke-linecap="round" stroke-linejoin="round"/>
<path d="M135.757 351.833L59.8392 343.086C57.1024 342.769 54.8848 339.161 54.8848 335.025V100.558C54.8848 96.4217 57.1024 92.7961 59.8392 92.4617L74.2096 90.7017L76.4272 93.1745C76.7575 93.5823 77.1833 93.9024 77.6667 94.1065C78.1502 94.3106 78.6765 94.3925 79.1992 94.3449L115.42 90.0681C116.046 89.9596 116.642 89.723 117.172 89.3732C117.702 89.0234 118.154 88.5679 118.5 88.0353L120.674 85.0433L135.783 83.1953C138.951 82.8081 141.538 86.1257 141.538 90.6049V344.379C141.512 348.858 138.925 352.194 135.757 351.833Z" fill="white" stroke="#263238" stroke-linecap="round" stroke-linejoin="round"/>
<path d="M54.8584 292.248V335.025C54.8584 339.161 57.076 342.769 59.8128 343.086L135.757 351.833C138.925 352.194 141.512 348.858 141.512 344.379V297.308L54.8584 292.248Z" fill="#B83330" stroke="#263238" stroke-linecap="round" stroke-linejoin="round"/>
<path d="M135.757 83.1953L120.647 85.0433L118.474 88.0353C118.128 88.5679 117.676 89.0234 117.146 89.3732C116.616 89.723 116.019 89.9596 115.394 90.0681L79.1992 94.3449C78.6773 94.3935 78.1514 94.313 77.668 94.1104C77.1846 93.9079 76.7585 93.5894 76.4272 93.1833L74.2096 90.7105L59.8392 92.4705C57.1024 92.8049 54.8848 96.4305 54.8848 100.566V127.917L141.512 122.32V90.6401C141.512 86.1257 138.925 82.8081 135.757 83.1953Z" fill="#B83330" stroke="#263238" stroke-linecap="round" stroke-linejoin="round"/>
<path d="M141.512 104.271V90.64C141.512 86.1608 138.925 82.8432 135.757 83.2304L120.647 85.0784L118.474 88.0704C118.128 88.6031 117.676 89.0586 117.146 89.4084C116.616 89.7582 116.019 89.9947 115.394 90.1032L79.1992 94.3448C78.6773 94.3935 78.1514 94.313 77.668 94.1104C77.1846 93.9078 76.7585 93.5894 76.4272 93.1832L74.2096 90.7104L59.8392 92.4704C57.1024 92.8048 54.8848 96.4304 54.8848 100.566V111.672L141.512 104.271Z" fill="#263238" stroke="#263238" stroke-linecap="round" stroke-linejoin="round"/>
<path d="M99.4663 119.504L60.6055 122.848V116.16L99.4663 112.807V119.504Z" fill="white"/>
<path d="M127.626 110.273L116.714 111.012L119.213 116.714L127.379 116.09L129.579 108.698L133.196 108.416" stroke="white" stroke-linecap="round" stroke-linejoin="round"/>
<path d="M121.317 118.8C121.317 118.974 121.265 119.144 121.168 119.289C121.072 119.434 120.934 119.546 120.773 119.613C120.613 119.68 120.436 119.697 120.265 119.663C120.094 119.629 119.937 119.545 119.814 119.422C119.691 119.299 119.608 119.142 119.574 118.972C119.54 118.801 119.557 118.624 119.624 118.463C119.69 118.302 119.803 118.165 119.948 118.068C120.092 117.972 120.263 117.92 120.437 117.92C120.67 117.92 120.894 118.013 121.059 118.178C121.224 118.343 121.317 118.567 121.317 118.8Z" fill="white" stroke="white" stroke-linecap="round" stroke-linejoin="round"/>
<path d="M127.379 118.316C127.379 118.49 127.328 118.66 127.231 118.805C127.134 118.95 126.997 119.062 126.836 119.129C126.675 119.196 126.498 119.213 126.327 119.179C126.157 119.145 126 119.061 125.877 118.938C125.754 118.815 125.67 118.658 125.636 118.488C125.602 118.317 125.62 118.14 125.686 117.979C125.753 117.818 125.866 117.681 126.01 117.584C126.155 117.488 126.325 117.436 126.499 117.436C126.733 117.436 126.956 117.529 127.121 117.694C127.286 117.859 127.379 118.083 127.379 118.316Z" fill="white" stroke="white" stroke-linecap="round" stroke-linejoin="round"/>
<path d="M94.248 171.538C94.248 171.538 97.108 162.492 102.458 161.515C107.809 160.538 117.093 161.374 117.304 163.944C117.515 166.513 113.291 170.605 113.291 170.605L94.248 171.538Z" fill="#B83330" stroke="#263238" stroke-linecap="round" stroke-linejoin="round"/>
<path d="M114.928 162.078C110.369 162.527 106.471 170.421 106.207 170.949L113.291 170.605C113.291 170.605 117.515 166.513 117.304 163.944C117.242 163.161 116.318 162.536 114.928 162.078Z" fill="#263238" stroke="#263238" stroke-linecap="round" stroke-linejoin="round"/>
<path d="M88.9759 160.846C88.9759 160.846 78.4159 158.946 76.0135 162.87C73.6111 166.795 83.7575 171.67 83.7575 171.67L98.5415 171.248L88.9759 160.846Z" fill="#B83330" stroke="#263238" stroke-linecap="round" stroke-linejoin="round"/>
<path d="M100.187 171.371C100.187 171.371 94.4584 158.892 88.976 160.811C83.4936 162.729 94.0448 171.318 95.268 171.283L100.187 171.371Z" fill="#263238" stroke="#263238" stroke-linecap="round" stroke-linejoin="round"/>
<path d="M120.066 213.356L68.9561 212.96V172.066L120.066 170.605V213.356Z" fill="white" stroke="#263238" stroke-linecap="round" stroke-linejoin="round"/>
<path d="M120.067 213.356L104.112 213.233V171.063L120.067 170.605V213.356Z" fill="white" stroke="#263238" stroke-linecap="round" stroke-linejoin="round"/>
<path d="M82.3584 213.065L92.4168 213.145V171.397L82.3584 171.688V213.065Z" fill="#B83330" stroke="#263238" stroke-linecap="round" stroke-linejoin="round"/>
<path d="M108.266 171.336V192.007L112.868 185.636L116.881 190.722V170.896L108.266 171.336Z" fill="#B83330" stroke="#263238" stroke-linecap="round" stroke-linejoin="round"/>
<path d="M66.123 259.864L126.359 262.873C130.266 263.067 133.452 260.286 133.452 256.652V241.225C133.452 237.591 130.266 234.564 126.359 234.467L66.123 232.989C65.3129 232.953 64.5039 233.082 63.7446 233.366C62.9853 233.651 62.2915 234.087 61.7046 234.646C61.1178 235.206 60.6501 235.879 60.3297 236.624C60.0092 237.369 59.8426 238.171 59.8398 238.982V253.44C59.8803 255.107 60.5511 256.697 61.7171 257.889C62.883 259.081 64.4574 259.786 66.123 259.864Z" fill="#263238" stroke="#263238" stroke-linecap="round" stroke-linejoin="round"/>
<path d="M77.228 243.505V244.446H76.04V243.443C76.04 242.466 75.644 241.859 74.7288 241.824C73.8136 241.789 73.4176 242.378 73.4176 243.355V249.04C73.4176 250.017 73.8312 250.624 74.7288 250.659C75.6264 250.694 76.04 250.122 76.04 249.137V246.954L74.8872 246.91V245.819L77.228 245.907V249.128C77.228 250.782 76.4272 251.838 74.6936 251.768C72.96 251.698 72.1592 250.606 72.1592 248.961V243.338C72.1592 241.683 72.96 240.627 74.6672 240.698C76.3744 240.768 77.228 241.85 77.228 243.505Z" fill="white"/>
<path d="M79.6832 240.944V251.9L78.4248 251.847V240.9L79.6832 240.944Z" fill="white"/>
<path d="M84.8672 246.233V247.35L82.2272 247.253V252.005L80.96 251.953V240.988L85.4832 241.129V242.246L82.2184 242.141V246.145L84.8672 246.233Z" fill="white"/>
<path d="M88.1843 252.26V242.334L86.0635 242.264V241.12L91.5723 241.296V242.422L89.4427 242.352V252.287L88.1843 252.26Z" fill="white"/>
<path d="M100.091 244.27V244.578L98.8497 244.534V244.165C98.8497 243.161 98.4449 242.554 97.5121 242.528C96.5793 242.501 96.1745 243.073 96.1745 244.059C96.1745 246.549 100.108 246.937 100.108 250.078C100.108 251.768 99.2281 252.833 97.4681 252.762C95.7081 252.692 94.8281 251.557 94.8281 249.867V249.233L96.0425 249.286V249.981C96.0425 250.985 96.4737 251.592 97.4065 251.627C98.3393 251.662 98.7793 251.09 98.7793 250.087C98.7793 247.605 94.8721 247.218 94.8721 244.094C94.8721 242.378 95.7521 241.34 97.4593 241.393C99.1665 241.445 100.091 242.581 100.091 244.27Z" fill="white"/>
<path d="M105.458 246.734V247.852L102.563 247.746V251.724L106.083 251.874V253.009L101.217 252.806V241.63L106.083 241.78V242.924L102.563 242.801V246.629L105.458 246.734Z" fill="white"/>
<path d="M108.521 253.114L107.333 253.061V241.824L109.014 241.877L111.786 250.122V242H112.974V253.299L111.583 253.237L108.521 244.015V253.114Z" fill="white"/>
<path d="M116.097 253.44V243.25L113.871 243.17V242L119.67 242.185V243.338L117.426 243.267V253.458L116.097 253.44Z" fill="white"/>
<path d="M103.224 405.68C133.113 405.68 157.344 402.528 157.344 398.64C157.344 394.752 133.113 391.6 103.224 391.6C73.3339 391.6 49.1035 394.752 49.1035 398.64C49.1035 402.528 73.3339 405.68 103.224 405.68Z" fill="#263238" stroke="#263238" stroke-width="2" stroke-miterlimit="10" stroke-linecap="round"/>
<path d="M261.903 204.376C261.903 223.509 246.39 239.023 227.256 239.023C208.122 239.023 192.609 223.509 192.609 204.376C192.609 185.242 208.122 169.729 227.256 169.729C246.39 169.729 261.903 185.242 261.903 204.376Z" fill="#B83330"/>
<path d="M237.054 189.679L241.953 194.578L217.458 219.073L212.559 214.174L237.054 189.679Z" fill="white"/>
<path d="M241.953 214.174L237.054 219.073L212.559 194.578L217.458 189.679L241.953 214.174Z" fill="white"/>
<path d="M154.984 338.333L134.613 328.433L130.837 326.603L115.212 319.01L78.5304 344.066L81.2475 378.921L121.013 398.239L157.701 373.189L154.984 338.333Z" fill="#B83330"/>
<path d="M78.5313 344.066L115.213 319.01L154.984 338.333L118.297 363.389L78.5313 344.066Z" fill="#B83330"/>
<path d="M118.296 363.391L121.013 398.24L81.2474 378.923L78.5303 344.067L118.296 363.391Z" fill="#B83330"/>
<path d="M154.983 338.334L157.7 373.189L121.012 398.24L118.295 363.39L154.983 338.334Z" fill="#B83330"/>
<path opacity="0.2" d="M78.5313 344.066L115.213 319.01L154.984 338.333L118.297 363.389L78.5313 344.066Z" fill="white"/>
<path opacity="0.1" d="M154.983 338.334L157.7 373.189L121.012 398.24L118.295 363.39L154.983 338.334Z" fill="black"/>
<path opacity="0.3" d="M130.837 326.604L138.582 330.367L101.9 355.422L94.1554 351.659L130.837 326.604Z" fill="white"/>
<path opacity="0.3" d="M95.1661 365.125L102.911 368.888L101.9 355.423L94.1553 351.66L95.1661 365.125Z" fill="white"/>
<path opacity="0.3" d="M96.7652 386.435L104.51 390.198L103.842 381.306L96.0977 377.543L96.7652 386.435Z" fill="white"/>
<path opacity="0.4" d="M125.898 355.346L117.537 351.316L109.93 356.544L118.286 360.58L125.898 355.346Z" fill="white"/>
<path d="M60.0099 355.974L45.6938 365.806L44.1376 366.876L23.5742 381.005L26.0915 415.876L66.1098 435.18L102.545 410.143L100.028 375.273L60.0099 355.974Z" fill="#B83330"/>
<path d="M100.028 375.272L60.0102 355.974L23.5748 381.005L63.5927 400.309L100.028 375.272Z" fill="#B83330"/>
<path d="M63.5922 400.31L66.1096 435.181L102.545 410.143L100.028 375.273L63.5922 400.31Z" fill="#B83330"/>
<path d="M23.5745 381.006L26.0919 415.876L66.1105 435.181L63.5931 400.31L23.5745 381.006Z" fill="#B83330"/>
<path opacity="0.4" d="M100.028 375.272L60.0102 355.974L23.5748 381.005L63.5927 400.309L100.028 375.272Z" fill="white"/>
<path opacity="0.3" d="M23.5745 381.006L26.0919 415.876L66.1105 435.181L63.5931 400.31L23.5745 381.006Z" fill="white"/>
<path opacity="0.3" d="M45.6947 365.806L38.5987 370.682L78.6165 389.987L85.7125 385.111L45.6947 365.806Z" fill="white"/>
<path opacity="0.3" d="M86.7224 398.576L79.6262 403.452L78.6153 389.987L85.7116 385.111L86.7224 398.576Z" fill="white"/>
<path opacity="0.3" d="M88.3224 419.885L81.2262 424.761L80.5587 415.868L87.6548 410.992L88.3224 419.885Z" fill="white"/>
<path d="M74.9757 354.633L62.9509 348.788L59.2594 346.993L49.0866 342.051L25.2072 358.365L26.975 381.046L52.8642 393.628L76.744 377.32L74.9757 354.633Z" fill="#B83330"/>
<path d="M25.2082 358.364L49.0873 342.051L74.9762 354.633L51.0966 370.94L25.2082 358.364Z" fill="#B83330"/>
<path d="M51.096 370.94L52.8642 393.628L26.9748 381.046L25.207 358.364L51.096 370.94Z" fill="#B83330"/>
<path d="M74.9755 354.632L76.7438 377.319L52.8637 393.627L51.0955 370.939L74.9755 354.632Z" fill="#B83330"/>
<path opacity="0.4" d="M25.2082 358.364L49.0873 342.051L74.9762 354.633L51.0966 370.94L25.2082 358.364Z" fill="white"/>
<path opacity="0.1" d="M51.096 370.94L52.8642 393.628L26.9748 381.046L25.207 358.364L51.096 370.94Z" fill="white"/>
<path opacity="0.3" d="M74.9755 354.632L76.7438 377.319L52.8637 393.627L51.0955 370.939L74.9755 354.632Z" fill="white"/>
<path opacity="0.3" d="M59.2602 346.993L64.3007 349.444L40.4211 365.752L35.3806 363.301L59.2602 346.993Z" fill="white"/>
<path opacity="0.3" d="M36.0382 372.069L41.0789 374.52L40.4206 365.751L35.3799 363.3L36.0382 372.069Z" fill="white"/>
<path opacity="0.3" d="M37.0798 385.941L42.1205 388.392L41.6857 382.601L36.6455 380.156L37.0798 385.941Z" fill="white"/>
<path opacity="0.4" d="M71.215 354.742L65.7775 352.12L60.8219 355.521L66.2656 358.149L71.215 354.742Z" fill="white"/>
<path d="M117.161 432.809L96.355 422.699L93.0193 421.079L93.0134 421.08L77.3951 413.486L40.7072 438.542L43.4238 473.392L83.1894 492.715L119.877 467.659L117.161 432.809Z" fill="#B83330"/>
<path d="M40.7081 438.542L77.3957 413.486L117.161 432.809L80.4733 457.865L40.7081 438.542Z" fill="#B83330"/>
<path d="M80.473 457.867L83.1897 492.716L43.4237 473.392L40.707 438.543L80.473 457.867Z" fill="#B83330"/>
<path d="M117.16 432.809L119.877 467.658L83.1885 492.715L80.4718 457.865L117.16 432.809Z" fill="#B83330"/>
<path opacity="0.2" d="M40.7081 438.542L77.3957 413.486L117.161 432.809L80.4733 457.865L40.7081 438.542Z" fill="white"/>
<path opacity="0.1" d="M117.16 432.809L119.877 467.658L83.1885 492.715L80.4718 457.865L117.16 432.809Z" fill="black"/>
<path opacity="0.3" d="M93.0187 421.079L100.757 424.843L64.0757 449.898L56.3311 446.135L93.0187 421.079Z" fill="white"/>
<path opacity="0.4" d="M62.0555 436.284L53.7 432.253L46.087 437.481L54.4483 441.512L62.0555 436.284Z" fill="white"/>
<path d="M137.996 427.287L123.68 437.119L120.618 439.225L101.555 452.319L104.072 487.189L144.09 506.494L180.526 481.456L178.008 446.586L137.996 427.287Z" fill="#B83330"/>
<path d="M178.008 446.585L137.997 427.287L101.555 452.318L141.573 471.623L178.008 446.585Z" fill="#B83330"/>
<path opacity="0.2" d="M178.008 446.585L137.997 427.287L101.555 452.318L141.573 471.623L178.008 446.585Z" fill="white"/>
<path opacity="0.3" d="M123.68 437.119L116.584 441.995L156.596 461.299L163.692 456.424L123.68 437.119Z" fill="white"/>
<path d="M136.249 403.862L124.895 411.668L121.428 414.046L107.337 423.726L109.337 451.391L141.092 466.711L169.998 446.842L168.004 419.177L136.249 403.862Z" fill="#B83330"/>
<path d="M168.005 419.176L136.251 403.862L107.339 423.725L139.093 439.045L168.005 419.176Z" fill="#B83330"/>
<path d="M139.091 439.046L141.091 466.711L169.998 446.842L168.004 419.176L139.091 439.046Z" fill="#B83330"/>
<path d="M107.337 423.727L109.337 451.392L141.092 466.712L139.092 439.047L107.337 423.727Z" fill="#B83330"/>
<path opacity="0.4" d="M168.005 419.176L136.251 403.862L107.339 423.725L139.093 439.045L168.005 419.176Z" fill="white"/>
<path opacity="0.1" d="M139.091 439.046L141.091 466.711L169.998 446.842L168.004 419.176L139.091 439.046Z" fill="white"/>
<path opacity="0.3" d="M107.337 423.727L109.337 451.392L141.092 466.712L139.092 439.047L107.337 423.727Z" fill="white"/>
<path opacity="0.3" d="M124.896 411.668L119.26 415.535L151.014 430.849L156.644 426.982L124.896 411.668Z" fill="white"/>
<path opacity="0.3" d="M157.446 437.67L151.816 441.536L151.014 430.849L156.644 426.982L157.446 437.67Z" fill="white"/>
<path opacity="0.4" d="M144.89 432.782L138.263 429.58L132.223 433.732L138.856 436.927L144.89 432.782Z" fill="white"/>
</g>
<defs>
<clipPath id="clip0_4070_2941">
<rect width="440" height="440" fill="white"/>
</clipPath>
</defs>
</svg>
